<svg xmlns="http://www.w3.org/2000/svg" xmlns:xlink="http://www.w3.org/1999/xlink" width="500" zoomAndPan="magnify" viewBox="0 0 375 374.999991" height="500" preserveAspectRatio="xMidYMid meet" version="1.0">
  <defs>
    <g/>
    <clipPath id="9eb93e4233">
      <path d="M 11.582031 16.652344 L 363.960938 16.652344 L 363.960938 358.347656 L 11.582031 358.347656 Z M 11.582031 16.652344 " clip-rule="nonzero"/>
    </clipPath>
    <clipPath id="d1ba37e1b1">
      <path d="M 28.832031 16.652344 L 346.167969 16.652344 C 350.742188 16.652344 355.128906 18.46875 358.363281 21.703125 C 361.597656 24.9375 363.417969 29.324219 363.417969 33.902344 L 363.417969 341.097656 C 363.417969 345.675781 361.597656 350.0625 358.363281 353.296875 C 355.128906 356.53125 350.742188 358.347656 346.167969 358.347656 L 28.832031 358.347656 C 24.257812 358.347656 19.871094 356.53125 16.636719 353.296875 C 13.402344 350.0625 11.582031 345.675781 11.582031 341.097656 L 11.582031 33.902344 C 11.582031 29.324219 13.402344 24.9375 16.636719 21.703125 C 19.871094 18.46875 24.257812 16.652344 28.832031 16.652344 Z M 28.832031 16.652344 " clip-rule="nonzero"/>
    </clipPath>
    <clipPath id="51d9e5057a">
      <path d="M 116.714844 136 L 219.722656 136 L 219.722656 256.839844 L 116.714844 256.839844 Z M 116.714844 136 " clip-rule="nonzero"/>
    </clipPath>
    <clipPath id="242e12da88">
      <path d="M 135 119.097656 L 157 119.097656 L 157 145 L 135 145 Z M 135 119.097656 " clip-rule="nonzero"/>
    </clipPath>
  </defs>
  
  <!-- Background -->
  <g clip-path="url(#9eb93e4233)">
    <g clip-path="url(#d1ba37e1b1)">
      <path fill="#ffffff" d="M 11.582031 16.652344 L 363.960938 16.652344 L 363.960938 358.347656 L 11.582031 358.347656 Z M 11.582031 16.652344 " fill-opacity="1" fill-rule="nonzero"/>
    </g>
  </g>

  <!-- Logo Icon -->
  <g clip-path="url(#51d9e5057a)">
    <path fill="#264180" d="M 210.492188 136.914062 L 172.660156 136.914062 L 165.984375 151.191406 C 166.160156 158.601562 166.59375 165.953125 167.46875 173.117188 L 167.929688 176.652344 C 168.066406 177.867188 168.316406 178.953125 168.5 180.121094 L 169.121094 183.589844 L 169.878906 186.933594 C 170.34375 189.226562 171.011719 191.296875 171.652344 193.488281 L 171.890625 194.304688 L 172.167969 195.066406 L 172.585938 196.207031 L 183.710938 169.722656 C 185.570312 165.363281 187.101562 160.839844 188.296875 156.140625 C 188.101562 159.199219 187.996094 162.761719 187.996094 166.867188 L 188.148438 173.890625 L 189.429688 208.585938 L 179.097656 208.585938 C 179.492188 209.09375 179.902344 209.585938 180.320312 210.066406 C 180.972656 210.816406 181.707031 211.414062 182.402344 212.128906 C 183.144531 212.746094 183.917969 213.316406 184.710938 213.910156 C 186.351562 214.910156 188.113281 215.886719 190.054688 216.417969 C 191.996094 217.078125 194.085938 217.328125 196.261719 217.453125 C 198.421875 217.503906 200.664062 217.28125 202.929688 216.878906 C 207.433594 215.960938 212.019531 214.257812 216.273438 211.679688 Z M 216.273438 211.679688 " fill-opacity="1" fill-rule="nonzero"/>
  </g>

  <!-- Accent Elements -->
  <path fill="#f2541d" d="M 167.386719 208.585938 C 165.304688 206.203125 163.433594 203.625 161.710938 200.949219 C 158.457031 195.839844 155.878906 190.28125 153.839844 184.519531 C 153.410156 183.019531 152.925781 181.527344 152.480469 180.042969 C 152.074219 178.59375 151.6875 177.152344 151.410156 175.671875 C 151.101562 174.167969 150.6875 172.691406 150.460938 171.175781 L 149.804688 166.617188 C 149.699219 165.867188 149.558594 165.113281 149.492188 164.347656 L 149.332031 162.046875 L 149 157.460938 C 148.894531 154.390625 148.964844 151.320312 148.949219 148.265625 L 143.800781 148.265625 C 143.804688 148.386719 143.816406 148.523438 143.828125 148.644531 C 144.042969 151.734375 144.203125 154.804688 144.511719 157.863281 L 145.179688 162.640625 L 145.515625 165.015625 C 145.632812 165.800781 145.835938 166.582031 145.988281 167.367188 L 147.011719 172.039062 C 147.351562 173.597656 147.890625 175.109375 148.308594 176.636719 C 148.949219 179.066406 149.863281 181.398438 150.757812 183.726562 C 150.996094 184.355469 151.230469 184.96875 151.460938 185.597656 C 153.972656 191.382812 157.011719 196.871094 160.695312 201.800781 C 164.355469 206.695312 168.582031 211.175781 173.503906 214.496094 C 171.292969 212.734375 169.25 210.738281 167.386719 208.585938 " fill-opacity="1" fill-rule="nonzero"/>

  <!-- Star Element -->
  <g clip-path="url(#242e12da88)">
    <path fill="#f2541d" d="M 148.011719 139.558594 L 148.28125 132.875 L 156.824219 134.5 L 154.742188 130.308594 L 148.515625 128.988281 L 148.871094 121.984375 L 146.375 119.40625 L 143.871094 121.984375 L 144.230469 128.988281 L 138 130.308594 L 135.925781 134.5 L 144.460938 132.875 L 144.730469 139.558594 L 142.238281 142.515625 L 142.097656 144.78125 L 146.375 143.699219 L 150.644531 144.78125 L 150.503906 142.515625 L 148.011719 139.558594 " fill-opacity="1" fill-rule="nonzero"/>
  </g>

  <!-- Text Elements -->
  <g fill="#264180" fill-opacity="1">
    <g transform="translate(223.652627, 254.751846)">
      <g>
        <path d="M 31.0625 -39.578125 L 46.828125 -39.578125 L 32.625 -23.296875 L 47.125 0 L 32.109375 0 L 23.875 -14.5 L 16.96875 -8.859375 L 16.96875 0 L 4.25 0 L 4.25 -39.578125 L 16.96875 -39.578125 L 16.96875 -22.671875 Z M 31.0625 -39.578125 "/>
      </g>
    </g>
  </g>

  <!-- Additional Text Elements -->
  <g fill="#264180" fill-opacity="1">
    <g transform="translate(271.559577, 254.751846)">
      <g>
        <path d="M 43.671875 -15.9375 C 43.671875 -10.53125 41.960938 -6.40625 38.546875 -3.5625 C 35.128906 -0.726562 30.273438 0.6875 23.984375 0.6875 C 17.703125 0.6875 12.84375 -0.726562 9.40625 -3.5625 C 5.96875 -6.40625 4.25 -10.53125 4.25 -15.9375 L 4.25 -39.578125 L 16.96875 -39.578125 L 16.96875 -16.109375 C 16.96875 -13.878906 17.5625 -12.101562 18.75 -10.78125 C 19.9375 -9.457031 21.664062 -8.796875 23.9375 -8.796875 C 26.195312 -8.796875 27.929688 -9.46875 29.140625 -10.8125 C 30.347656 -12.15625 30.953125 -13.921875 30.953125 -16.109375 L 30.953125 -39.578125 L 43.671875 -39.578125 Z M 43.671875 -15.9375 "/>
      </g>
    </g>
  </g>

  <!-- Decorative Elements -->
  <g fill="#f2541d" fill-opacity="1">
    <g transform="translate(223.652627, 196.870539)">
      <g>
        <path d="M 41.890625 -25.28125 C 42.523438 -25.769531 43.175781 -26.207031 43.84375 -26.59375 C 44.507812 -26.988281 45.300781 -26.941406 46.21875 -26.453125 C 43.6875 -23.066406 40.53125 -20.753906 36.75 -19.515625 C 32.976562 -18.285156 27.921875 -17.953125 21.578125 -18.515625 C 21.148438 -17.878906 20.691406 -17.207031 20.203125 -16.5 C 19.710938 -15.789062 19.21875 -15.050781 18.71875 -14.28125 C 17.382812 -12.300781 16.03125 -10.320312 14.65625 -8.34375 C 13.28125 -6.375 11.847656 -4.40625 10.359375 -2.4375 C 9.304688 -1.019531 8.039062 0.175781 6.5625 1.15625 C 5.425781 1.863281 4.082031 2.320312 2.53125 2.53125 C 1.332031 2.675781 0.363281 2.410156 -0.375 1.734375 C -1.113281 1.066406 -1.550781 0.132812 -1.6875 -1.0625 C -1.757812 -1.414062 -1.796875 -1.800781 -1.796875 -2.21875 C -1.796875 -2.644531 -1.757812 -3.066406 -1.6875 -3.484375 C -1.125 -6.453125 -0.546875 -9.429688 0.046875 -12.421875 C 0.648438 -15.421875 1.269531 -18.4375 1.90625 -21.46875 C 1.976562 -22.03125 2.132812 -22.554688 2.375 -23.046875 C 2.625 -23.546875 2.890625 -24.046875 3.171875 -24.546875 C 3.242188 -24.753906 3.457031 -24.945312 3.8125 -25.125 C 4.164062 -25.300781 4.550781 -25.53125 4.96875 -25.8125 C 5.113281 -25.175781 5.238281 -24.609375 5.34375 -24.109375 C 5.445312 -23.617188 5.5 -23.164062 5.5 -22.75 C 5.289062 -20.769531 5.046875 -18.773438 4.765625 -16.765625 C 4.484375 -14.753906 4.195312 -12.765625 3.90625 -10.796875 C 3.769531 -9.378906 3.648438 -7.960938 3.546875 -6.546875 C 3.441406 -5.140625 3.351562 -3.769531 3.28125 -2.4375 C 4.125 -2.082031 4.703125 -2.082031 5.015625 -2.4375 C 5.335938 -2.789062 5.601562 -3.140625 5.8125 -3.484375 C 7.582031 -6.304688 9.328125 -9.109375 11.046875 -11.890625 C 12.773438 -14.679688 14.523438 -17.488281 16.296875 -20.3125 C 16.578125 -20.800781 16.734375 -21.3125 16.765625 -21.84375 C 16.796875 -22.375 16.78125 -22.957031 16.71875 -23.59375 C 16.570312 -26.476562 17.097656 -29.117188 18.296875 -31.515625 C 19.492188 -33.921875 21.117188 -36.109375 23.171875 -38.078125 C 23.453125 -38.296875 23.785156 -38.488281 24.171875 -38.65625 C 24.554688 -38.832031 24.960938 -38.992188 25.390625 -39.140625 C 26.097656 -39.347656 26.800781 -39.414062 27.5 -39.34375 C 28.207031 -39.28125 28.84375 -39 29.40625 -38.5 C 30.039062 -38.007812 30.285156 -37.425781 30.140625 -36.75 C 30.003906 -36.082031 29.796875 -35.46875 29.515625 -34.90625 C 28.734375 -33 27.898438 -31.078125 27.015625 -29.140625 C 26.140625 -27.203125 25.207031 -25.210938 24.21875 -23.171875 C 25.207031 -21.828125 26.300781 -21.03125 27.5 -20.78125 C 28.695312 -20.539062 29.96875 -20.523438 31.3125 -20.734375 C 33.28125 -21.085938 35.128906 -21.664062 36.859375 -22.46875 C 38.585938 -23.28125 40.265625 -24.21875 41.890625 -25.28125 Z M 41.890625 -25.28125 "/>
      </g>
    </g>
  </g>

  <!-- Final Decorative Element -->
  <g fill="#f2541d" fill-opacity="1">
    <g transform="translate(263.530706, 196.870539)">
      <g>
        <path d="M 36.59375 -17.453125 C 36.59375 -17.453125 36.878906 -17.382812 37.453125 -17.25 C 37.378906 -16.894531 37.34375 -16.503906 37.34375 -16.078125 C 37.34375 -15.648438 37.269531 -15.265625 37.125 -14.921875 C 36.632812 -14.140625 36.125 -13.34375 35.59375 -12.53125 C 35.0625 -11.71875 34.476562 -10.960938 33.84375 -10.265625 C 30.113281 -6.242188 25.8125 -3.066406 20.9375 -0.734375 C 18.820312 0.242188 16.65625 0.800781 14.4375 0.9375 C 12.21875 1.082031 9.976562 0.84375 7.71875 0.21875 C 4.894531 -0.5625 2.757812 -2.046875 1.3125 -4.234375 C -0.125 -6.421875 -0.738281 -9.132812 -0.53125 -12.375 C -0.320312 -16.039062 0.46875 -19.40625 1.84375 -22.46875 C 3.21875 -25.539062 5.109375 -28.3125 7.515625 -30.78125 C 10.546875 -33.957031 14 -34.628906 17.875 -32.796875 C 19.425781 -32.085938 20.46875 -31.023438 21 -29.609375 C 21.53125 -28.203125 21.441406 -26.65625 20.734375 -24.96875 C 20.378906 -23.976562 19.898438 -23.039062 19.296875 -22.15625 C 18.703125 -21.28125 18.085938 -20.453125 17.453125 -19.671875 C 14.554688 -16.359375 10.960938 -13.859375 6.671875 -12.171875 C 6.378906 -10.828125 6.375 -9.625 6.65625 -8.5625 C 6.945312 -7.507812 7.335938 -6.523438 7.828125 -5.609375 C 8.460938 -4.546875 9.203125 -3.734375 10.046875 -3.171875 C 10.890625 -2.609375 11.910156 -2.394531 13.109375 -2.53125 C 14.097656 -2.675781 15.117188 -2.867188 16.171875 -3.109375 C 17.234375 -3.359375 18.222656 -3.695312 19.140625 -4.125 C 22.035156 -5.394531 24.769531 -6.960938 27.34375 -8.828125 C 29.914062 -10.703125 32.257812 -12.90625 34.375 -15.4375 C 34.726562 -15.789062 35.097656 -16.125 35.484375 -16.4375 C 35.878906 -16.757812 36.25 -17.097656 36.59375 -17.453125 Z M 14.0625 -29.09375 C 12.300781 -27.820312 10.925781 -26.285156 9.9375 -24.484375 C 8.957031 -22.691406 8.21875 -20.347656 7.71875 -17.453125 C 9.195312 -18.515625 10.429688 -19.675781 11.421875 -20.9375 C 12.410156 -22.207031 13.289062 -23.617188 14.0625 -25.171875 C 14.34375 -25.734375 14.535156 -26.347656 14.640625 -27.015625 C 14.753906 -27.691406 14.5625 -28.382812 14.0625 -29.09375 Z M 14.0625 -29.09375 "/>
      </g>
    </g>
  </g>
</svg>